<svg width="1920" height="95" viewBox="0 0 1920 95" fill="none" xmlns="http://www.w3.org/2000/svg">
<path d="M210.13 49.119C209.752 49.4968 209.374 49.8747 208.996 50.2525C207.107 52.5196 205.218 54.7866 203.328 57.0536L202.951 57.4315C197.283 51.0082 180.28 35.139 149.675 42.6957C142.496 44.5849 134.94 49.8747 126.249 56.2979C124.738 57.4315 122.849 58.9428 120.96 60.4542C119.448 61.5877 118.315 62.7212 116.803 63.4769C110.758 68.0109 103.957 73.3007 96.7778 77.8347C92.9995 80.1018 88.8432 82.3688 84.3091 84.6358C71.8405 90.6813 57.8604 94.4597 41.2355 94.4597C30.2781 94.4597 17.8095 92.5705 4.5851 88.4142C-1.08248 85.0137 -6.37222 81.6131 -11.2841 77.8347C-17.7074 72.9228 -23.375 67.6331 -29.0425 61.9655C-14.6847 69.9001 -1.83816 75.1899 10.2527 78.5904C35.9457 85.7694 55.9712 83.8802 72.5961 77.8347C76.7523 76.3234 80.9086 74.4342 85.0648 72.1672C93.3773 67.6331 100.934 62.3433 108.113 57.0536C110.38 55.1644 112.647 53.6531 114.914 51.7639C115.67 51.0082 116.425 50.6304 117.181 49.8747C127.761 41.5622 137.207 34.7611 147.408 32.1162C162.9 28.3379 175.746 29.4714 185.57 32.8719C190.482 34.3833 194.638 36.6503 198.039 38.5395C200.306 40.0509 202.573 41.5622 204.462 43.0736C206.729 45.7184 208.618 47.6076 210.13 49.119Z" fill="#006E61" fill-opacity="0.14"/>
<path d="M198.794 62.3434C193.504 68.0109 187.459 72.9228 181.414 77.8347C176.502 81.6131 171.212 85.3915 165.544 88.4142C151.564 92.9483 139.096 94.4597 128.138 94.4597C111.513 94.4597 97.1555 90.3034 85.0647 84.6358C80.9085 82.7467 76.7522 80.4796 72.596 77.8347C65.4171 73.3007 58.616 68.3888 52.5705 63.4769C51.0592 62.3434 49.9257 61.2098 48.4143 60.4542C46.5251 58.9428 45.0137 57.8093 43.1246 56.2979C34.4343 49.8747 26.8775 44.5849 19.6986 42.6957C-10.5286 35.139 -27.5313 50.2525 -33.1989 57.0536L-33.5767 56.6758C-35.4659 54.4087 -37.3551 52.5196 -38.8665 50.2525C-39.2443 49.8747 -39.6222 49.119 -40 48.7412C-38.4886 46.852 -36.2216 44.9628 -33.9546 43.0736C-29.4205 39.2952 -23.3751 35.5168 -15.4405 32.8719C-5.61666 29.4714 7.22989 28.3379 22.7213 32.1162C32.9229 34.7611 42.3689 41.5622 53.3263 49.8747C54.0819 50.6304 54.8376 51.0082 55.5933 51.7639C57.8603 53.6531 60.1273 55.1644 62.3944 57.0536C69.5733 62.3433 77.1301 67.6331 85.4426 72.1672C89.2209 74.4342 93.3771 76.3234 97.9112 77.8347C114.536 83.8802 134.562 86.1472 160.255 78.5904C171.212 75.5677 184.436 69.9001 198.794 62.3434Z" fill="#006E61" fill-opacity="0.14"/>
<path d="M199.55 61.5876C199.55 61.9655 199.172 61.9654 199.172 62.3433C193.882 68.0109 187.837 72.9228 181.791 77.8347C176.502 78.5903 171.212 78.9682 166.678 78.9682C164.411 78.9682 162.144 78.9682 159.877 78.5904C143.63 77.4568 130.027 71.4114 117.936 63.4768C114.536 61.2098 111.513 59.3206 108.491 57.0535C102.445 52.5195 96.3997 47.6076 90.7321 42.6957C88.8429 41.1843 86.9537 39.6729 85.4424 38.1616C88.4651 35.8945 91.1099 33.2497 94.1326 30.9827C95.2661 32.1162 96.7775 33.2497 97.911 34.3832C104.334 40.0508 110.758 45.3405 117.559 50.2524C120.581 52.5195 123.982 54.7865 127.005 56.6757C145.519 68.0109 167.433 73.3006 199.55 61.5876Z" fill="#006E61" fill-opacity="0.14"/>
<path d="M210.885 48.3634C210.885 48.7412 210.507 49.1191 210.13 49.1191C209.752 49.4969 209.374 49.8747 208.996 50.2526C207.107 52.5196 205.218 54.7866 203.328 57.0537C200.684 52.5196 194.638 42.6958 185.192 33.2498C173.101 20.7812 155.343 9.06813 134.184 11.713C118.692 13.6022 105.846 21.5368 93.3772 30.9828C90.3545 33.2498 87.7096 35.5169 84.6869 38.1617C82.7977 39.6731 80.9086 41.1845 79.3972 42.6958C73.7296 47.6077 68.0621 52.5196 61.6388 57.0537C58.6161 59.3207 55.5934 61.5878 52.1928 63.477C40.102 71.4116 26.4998 77.0792 10.2527 78.5905C7.98565 78.5905 6.09644 78.9683 3.45157 78.9683C-1.0825 78.9683 -5.99438 78.5905 -11.2841 77.8348C-17.7074 72.9229 -23.375 67.6332 -29.0425 61.9656C2.69593 72.9229 24.2327 68.011 43.1247 56.6758C46.5252 54.7866 49.5479 52.5196 52.5706 50.2526C59.3717 45.3407 65.4172 40.0509 72.2183 34.3833C73.3518 33.2498 74.8632 32.1163 75.9967 30.9828C77.1302 29.8493 78.2637 29.0936 79.7751 27.9601C81.2864 26.8266 83.1756 25.3152 84.6869 23.8039C86.5761 22.2925 88.4653 20.7812 90.3545 19.6476C90.7324 19.2698 90.7324 19.2698 91.1102 18.8919C102.823 10.2017 115.292 3.40055 130.405 0.755681C131.161 0.755681 131.917 0.377848 132.673 0.377848C135.695 8.64242e-06 138.34 0 141.363 0C153.454 0 165.545 4.15622 176.88 11.713C180.658 13.98 184.059 17.0028 187.837 20.0255C189.726 21.5368 191.615 23.426 193.505 25.6931C197.661 30.2271 201.439 34.7612 204.462 38.5396C207.107 42.318 209.374 45.7185 210.885 48.3634Z" fill="#006E61" fill-opacity="0.14"/>
<path d="M997.129 49.119C996.752 49.4968 996.374 49.8747 995.996 50.2525C994.107 52.5196 992.218 54.7866 990.328 57.0536L989.951 57.4315C984.283 51.0082 967.28 35.139 936.675 42.6957C929.496 44.5849 921.94 49.8747 913.249 56.2979C911.738 57.4315 909.849 58.9428 907.959 60.4542C906.448 61.5877 905.315 62.7212 903.803 63.4769C897.758 68.0109 890.957 73.3007 883.778 77.8347C879.999 80.1018 875.843 82.3688 871.309 84.6358C858.84 90.6813 844.86 94.4597 828.235 94.4597C817.278 94.4597 804.809 92.5705 791.585 88.4142C785.917 85.0137 780.628 81.6131 775.716 77.8347C769.293 72.9228 763.625 67.6331 757.957 61.9655C772.315 69.9001 785.162 75.1899 797.253 78.5904C822.946 85.7694 842.971 83.8802 859.596 77.8347C863.752 76.3234 867.909 74.4342 872.065 72.1672C880.377 67.6331 887.934 62.3433 895.113 57.0536C897.38 55.1644 899.647 53.6531 901.914 51.7639C902.67 51.0082 903.425 50.6304 904.181 49.8747C914.761 41.5622 924.207 34.7611 934.408 32.1162C949.9 28.3379 962.746 29.4714 972.57 32.8719C977.482 34.3833 981.638 36.6503 985.039 38.5395C987.306 40.0509 989.573 41.5622 991.462 43.0736C993.729 45.7184 995.618 47.6076 997.129 49.119Z" fill="#006E61" fill-opacity="0.14"/>
<path d="M985.794 62.3434C980.504 68.0109 974.459 72.9228 968.414 77.8347C963.502 81.6131 958.212 85.3915 952.544 88.4142C938.564 92.9483 926.096 94.4597 915.138 94.4597C898.513 94.4597 884.156 90.3034 872.065 84.6358C867.908 82.7467 863.752 80.4796 859.596 77.8347C852.417 73.3007 845.616 68.3888 839.571 63.4769C838.059 62.3434 836.926 61.2098 835.414 60.4542C833.525 58.9428 832.014 57.8093 830.125 56.2979C821.434 49.8747 813.877 44.5849 806.699 42.6957C776.471 35.139 759.469 50.2525 753.801 57.0536L753.423 56.6758C751.534 54.4087 749.645 52.5196 748.134 50.2525C747.756 49.8747 747.378 49.119 747 48.7412C748.511 46.852 750.778 44.9628 753.045 43.0736C757.58 39.2952 763.625 35.5168 771.56 32.8719C781.383 29.4714 794.23 28.3379 809.721 32.1162C819.923 34.7611 829.369 41.5622 840.326 49.8747C841.082 50.6304 841.838 51.0082 842.593 51.7639C844.86 53.6531 847.127 55.1644 849.394 57.0536C856.573 62.3433 864.13 67.6331 872.443 72.1672C876.221 74.4342 880.377 76.3234 884.911 77.8347C901.536 83.8802 921.562 86.1472 947.255 78.5904C958.212 75.5677 971.436 69.9001 985.794 62.3434Z" fill="#006E61" fill-opacity="0.14"/>
<path d="M986.55 61.5876C986.55 61.9655 986.172 61.9654 986.172 62.3433C980.882 68.0109 974.837 72.9228 968.791 77.8347C963.502 78.5903 958.212 78.9682 953.678 78.9682C951.411 78.9682 949.144 78.9682 946.877 78.5904C930.63 77.4568 917.027 71.4114 904.936 63.4768C901.536 61.2098 898.513 59.3206 895.49 57.0535C889.445 52.5195 883.4 47.6076 877.732 42.6957C875.843 41.1843 873.954 39.6729 872.442 38.1616C875.465 35.8945 878.11 33.2497 881.133 30.9827C882.266 32.1162 883.777 33.2497 884.911 34.3832C891.334 40.0508 897.758 45.3405 904.559 50.2524C907.581 52.5195 910.982 54.7865 914.005 56.6757C932.519 68.0109 954.433 73.3006 986.55 61.5876Z" fill="#006E61" fill-opacity="0.14"/>
<path d="M997.885 48.3634C997.885 48.7412 997.507 49.1191 997.129 49.1191C996.752 49.4969 996.374 49.8747 995.996 50.2526C994.107 52.5196 992.218 54.7866 990.328 57.0537C987.683 52.5196 981.638 42.6958 972.192 33.2498C960.101 20.7812 942.343 9.06813 921.184 11.713C905.692 13.6022 892.846 21.5368 880.377 30.9828C877.355 33.2498 874.71 35.5169 871.687 38.1617C869.798 39.6731 867.909 41.1845 866.397 42.6958C860.73 47.6077 855.062 52.5196 848.639 57.0537C845.616 59.3207 842.593 61.5878 839.193 63.477C827.102 71.4116 813.5 77.0792 797.253 78.5905C794.986 78.5905 793.096 78.9683 790.452 78.9683C785.917 78.9683 781.006 78.5905 775.716 77.8348C769.293 72.9229 763.625 67.6332 757.957 61.9656C789.696 72.9229 811.233 68.011 830.125 56.6758C833.525 54.7866 836.548 52.5196 839.571 50.2526C846.372 45.3407 852.417 40.0509 859.218 34.3833C860.352 33.2498 861.863 32.1163 862.997 30.9828C864.13 29.8493 865.264 29.0936 866.775 27.9601C868.286 26.8266 870.176 25.3152 871.687 23.8039C873.576 22.2925 875.465 20.7812 877.355 19.6476C877.732 19.2698 877.732 19.2698 878.11 18.8919C889.823 10.2017 902.292 3.40055 917.405 0.755681C918.161 0.755681 918.917 0.377848 919.673 0.377848C922.695 8.64242e-06 925.34 0 928.363 0C940.454 0 952.544 4.15622 963.88 11.713C967.658 13.98 971.059 17.0028 974.837 20.0255C976.726 21.5368 978.615 23.426 980.505 25.6931C984.661 30.2271 988.439 34.7612 991.462 38.5396C994.107 42.318 996.374 45.7185 997.885 48.3634Z" fill="#006E61" fill-opacity="0.14"/>
<path d="M841.244 49.119C840.867 49.4968 840.489 49.8747 840.111 50.2525C838.222 52.5196 836.332 54.7866 834.443 57.0536L834.065 57.4315C828.398 51.0082 811.395 35.139 780.79 42.6957C773.611 44.5849 766.054 49.8747 757.364 56.2979C755.853 57.4315 753.964 58.9428 752.074 60.4542C750.563 61.5877 749.429 62.7212 747.918 63.4769C741.873 68.0109 735.072 73.3007 727.893 77.8347C724.114 80.1018 719.958 82.3688 715.424 84.6358C702.955 90.6813 688.975 94.4597 672.35 94.4597C661.393 94.4597 648.924 92.5705 635.7 88.4142C630.032 85.0137 624.743 81.6131 619.831 77.8347C613.407 72.9228 607.74 67.6331 602.072 61.9655C616.43 69.9001 629.277 75.1899 641.368 78.5904C667.061 85.7694 687.086 83.8802 703.711 77.8347C707.867 76.3234 712.023 74.4342 716.18 72.1672C724.492 67.6331 732.049 62.3433 739.228 57.0536C741.495 55.1644 743.762 53.6531 746.029 51.7639C746.785 51.0082 747.54 50.6304 748.296 49.8747C758.875 41.5622 768.321 34.7611 778.523 32.1162C794.014 28.3379 806.861 29.4714 816.685 32.8719C821.597 34.3833 825.753 36.6503 829.153 38.5395C831.421 40.0509 833.688 41.5622 835.577 43.0736C837.844 45.7184 839.733 47.6076 841.244 49.119Z" fill="#006E61" fill-opacity="0.14"/>
<path d="M829.909 62.3434C824.619 68.0109 818.574 72.9228 812.529 77.8347C807.617 81.6131 802.327 85.3915 796.659 88.4142C782.679 92.9483 770.211 94.4597 759.253 94.4597C742.628 94.4597 728.27 90.3034 716.18 84.6358C712.023 82.7467 707.867 80.4796 703.711 77.8347C696.532 73.3007 689.731 68.3888 683.685 63.4769C682.174 62.3434 681.041 61.2098 679.529 60.4542C677.64 58.9428 676.129 57.8093 674.239 56.2979C665.549 49.8747 657.992 44.5849 650.813 42.6957C620.586 35.139 603.584 50.2525 597.916 57.0536L597.538 56.6758C595.649 54.4087 593.76 52.5196 592.248 50.2525C591.871 49.8747 591.493 49.119 591.115 48.7412C592.626 46.852 594.893 44.9628 597.16 43.0736C601.694 39.2952 607.74 35.5168 615.674 32.8719C625.498 29.4714 638.345 28.3379 653.836 32.1162C664.038 34.7611 673.484 41.5622 684.441 49.8747C685.197 50.6304 685.953 51.0082 686.708 51.7639C688.975 53.6531 691.242 55.1644 693.509 57.0536C700.688 62.3433 708.245 67.6331 716.557 72.1672C720.336 74.4342 724.492 76.3234 729.026 77.8347C745.651 83.8802 765.676 86.1472 791.37 78.5904C802.327 75.5677 815.551 69.9001 829.909 62.3434Z" fill="#006E61" fill-opacity="0.14"/>
<path d="M830.665 61.5876C830.665 61.9655 830.287 61.9654 830.287 62.3433C824.997 68.0109 818.952 72.9228 812.906 77.8347C807.616 78.5903 802.327 78.9682 797.793 78.9682C795.526 78.9682 793.259 78.9682 790.992 78.5904C774.744 77.4568 761.142 71.4114 749.051 63.4768C745.651 61.2098 742.628 59.3206 739.605 57.0535C733.56 52.5195 727.515 47.6076 721.847 42.6957C719.958 41.1843 718.069 39.6729 716.557 38.1616C719.58 35.8945 722.225 33.2497 725.248 30.9827C726.381 32.1162 727.892 33.2497 729.026 34.3832C735.449 40.0508 741.872 45.3405 748.674 50.2524C751.696 52.5195 755.097 54.7865 758.12 56.6757C776.634 68.0109 798.548 73.3006 830.665 61.5876Z" fill="#006E61" fill-opacity="0.14"/>
<path d="M842 48.3634C842 48.7412 841.622 49.1191 841.244 49.1191C840.867 49.4969 840.489 49.8747 840.111 50.2526C838.222 52.5196 836.332 54.7866 834.443 57.0537C831.798 52.5196 825.753 42.6958 816.307 33.2498C804.216 20.7812 786.458 9.06813 765.299 11.713C749.807 13.6022 736.961 21.5368 724.492 30.9828C721.469 33.2498 718.825 35.5169 715.802 38.1617C713.913 39.6731 712.023 41.1845 710.512 42.6958C704.844 47.6077 699.177 52.5196 692.754 57.0537C689.731 59.3207 686.708 61.5878 683.308 63.477C671.217 71.4116 657.615 77.0792 641.368 78.5905C639.101 78.5905 637.211 78.9683 634.566 78.9683C630.032 78.9683 625.12 78.5905 619.831 77.8348C613.407 72.9229 607.74 67.6332 602.072 61.9656C633.811 72.9229 655.348 68.011 674.24 56.6758C677.64 54.7866 680.663 52.5196 683.685 50.2526C690.487 45.3407 696.532 40.0509 703.333 34.3833C704.467 33.2498 705.978 32.1163 707.112 30.9828C708.245 29.8493 709.379 29.0936 710.89 27.9601C712.401 26.8266 714.29 25.3152 715.802 23.8039C717.691 22.2925 719.58 20.7812 721.469 19.6476C721.847 19.2698 721.847 19.2698 722.225 18.8919C733.938 10.2017 746.407 3.40055 761.52 0.755681C762.276 0.755681 763.032 0.377848 763.787 0.377848C766.81 8.64242e-06 769.455 0 772.478 0C784.568 0 796.659 4.15622 807.995 11.713C811.773 13.98 815.173 17.0028 818.952 20.0255C820.841 21.5368 822.73 23.426 824.619 25.6931C828.776 30.2271 832.554 34.7612 835.577 38.5396C838.222 42.318 840.489 45.7185 842 48.3634Z" fill="#006E61" fill-opacity="0.14"/>
<path d="M1628.24 49.119C1627.87 49.4968 1627.49 49.8747 1627.11 50.2525C1625.22 52.5196 1623.33 54.7866 1621.44 57.0536L1621.07 57.4315C1615.4 51.0082 1598.4 35.139 1567.79 42.6957C1560.61 44.5849 1553.05 49.8747 1544.36 56.2979C1542.85 57.4315 1540.96 58.9428 1539.07 60.4542C1537.56 61.5877 1536.43 62.7212 1534.92 63.4769C1528.87 68.0109 1522.07 73.3007 1514.89 77.8347C1511.11 80.1018 1506.96 82.3688 1502.42 84.6358C1489.96 90.6813 1475.98 94.4597 1459.35 94.4597C1448.39 94.4597 1435.92 92.5705 1422.7 88.4142C1417.03 85.0137 1411.74 81.6131 1406.83 77.8347C1400.41 72.9228 1394.74 67.6331 1389.07 61.9655C1403.43 69.9001 1416.28 75.1899 1428.37 78.5904C1454.06 85.7694 1474.09 83.8802 1490.71 77.8347C1494.87 76.3234 1499.02 74.4342 1503.18 72.1672C1511.49 67.6331 1519.05 62.3433 1526.23 57.0536C1528.49 55.1644 1530.76 53.6531 1533.03 51.7639C1533.78 51.0082 1534.54 50.6304 1535.3 49.8747C1545.88 41.5622 1555.32 34.7611 1565.52 32.1162C1581.01 28.3379 1593.86 29.4714 1603.68 32.8719C1608.6 34.3833 1612.75 36.6503 1616.15 38.5395C1618.42 40.0509 1620.69 41.5622 1622.58 43.0736C1624.84 45.7184 1626.73 47.6076 1628.24 49.119Z" fill="#006E61" fill-opacity="0.14"/>
<path d="M1616.91 62.3434C1611.62 68.0109 1605.57 72.9228 1599.53 77.8347C1594.62 81.6131 1589.33 85.3915 1583.66 88.4142C1569.68 92.9483 1557.21 94.4597 1546.25 94.4597C1529.63 94.4597 1515.27 90.3034 1503.18 84.6358C1499.02 82.7467 1494.87 80.4796 1490.71 77.8347C1483.53 73.3007 1476.73 68.3888 1470.69 63.4769C1469.17 62.3434 1468.04 61.2098 1466.53 60.4542C1464.64 58.9428 1463.13 57.8093 1461.24 56.2979C1452.55 49.8747 1444.99 44.5849 1437.81 42.6957C1407.59 35.139 1390.58 50.2525 1384.92 57.0536L1384.54 56.6758C1382.65 54.4087 1380.76 52.5196 1379.25 50.2525C1378.87 49.8747 1378.49 49.119 1378.11 48.7412C1379.63 46.852 1381.89 44.9628 1384.16 43.0736C1388.69 39.2952 1394.74 35.5168 1402.67 32.8719C1412.5 29.4714 1425.34 28.3379 1440.84 32.1162C1451.04 34.7611 1460.48 41.5622 1471.44 49.8747C1472.2 50.6304 1472.95 51.0082 1473.71 51.7639C1475.98 53.6531 1478.24 55.1644 1480.51 57.0536C1487.69 62.3433 1495.25 67.6331 1503.56 72.1672C1507.34 74.4342 1511.49 76.3234 1516.03 77.8347C1532.65 83.8802 1552.68 86.1472 1578.37 78.5904C1589.33 75.5677 1602.55 69.9001 1616.91 62.3434Z" fill="#006E61" fill-opacity="0.14"/>
<path d="M1617.66 61.5876C1617.66 61.9655 1617.29 61.9654 1617.29 62.3433C1612 68.0109 1605.95 72.9228 1599.91 77.8347C1594.62 78.5903 1589.33 78.9682 1584.79 78.9682C1582.53 78.9682 1580.26 78.9682 1577.99 78.5904C1561.74 77.4568 1548.14 71.4114 1536.05 63.4768C1532.65 61.2098 1529.63 59.3206 1526.61 57.0535C1520.56 52.5195 1514.51 47.6076 1508.85 42.6957C1506.96 41.1843 1505.07 39.6729 1503.56 38.1616C1506.58 35.8945 1509.22 33.2497 1512.25 30.9827C1513.38 32.1162 1514.89 33.2497 1516.03 34.3832C1522.45 40.0508 1528.87 45.3405 1535.67 50.2524C1538.7 52.5195 1542.1 54.7865 1545.12 56.6757C1563.63 68.0109 1585.55 73.3006 1617.66 61.5876Z" fill="#006E61" fill-opacity="0.14"/>
<path d="M1629 48.3634C1629 48.7412 1628.62 49.1191 1628.24 49.1191C1627.87 49.4969 1627.49 49.8747 1627.11 50.2526C1625.22 52.5196 1623.33 54.7866 1621.44 57.0537C1618.8 52.5196 1612.75 42.6958 1603.31 33.2498C1591.22 20.7812 1573.46 9.06813 1552.3 11.713C1536.81 13.6022 1523.96 21.5368 1511.49 30.9828C1508.47 33.2498 1505.82 35.5169 1502.8 38.1617C1500.91 39.6731 1499.02 41.1845 1497.51 42.6958C1491.84 47.6077 1486.18 52.5196 1479.75 57.0537C1476.73 59.3207 1473.71 61.5878 1470.31 63.477C1458.22 71.4116 1444.61 77.0792 1428.37 78.5905C1426.1 78.5905 1424.21 78.9683 1421.57 78.9683C1417.03 78.9683 1412.12 78.5905 1406.83 77.8348C1400.41 72.9229 1394.74 67.6332 1389.07 61.9656C1420.81 72.9229 1442.35 68.011 1461.24 56.6758C1464.64 54.7866 1467.66 52.5196 1470.69 50.2526C1477.49 45.3407 1483.53 40.0509 1490.33 34.3833C1491.47 33.2498 1492.98 32.1163 1494.11 30.9828C1495.25 29.8493 1496.38 29.0936 1497.89 27.9601C1499.4 26.8266 1501.29 25.3152 1502.8 23.8039C1504.69 22.2925 1506.58 20.7812 1508.47 19.6476C1508.85 19.2698 1508.85 19.2698 1509.23 18.8919C1520.94 10.2017 1533.41 3.40055 1548.52 0.755681C1549.28 0.755681 1550.03 0.377848 1550.79 0.377848C1553.81 8.64242e-06 1556.46 0 1559.48 0C1571.57 0 1583.66 4.15622 1594.99 11.713C1598.77 13.98 1602.17 17.0028 1605.95 20.0255C1607.84 21.5368 1609.73 23.426 1611.62 25.6931C1615.78 30.2271 1619.55 34.7612 1622.58 38.5396C1625.22 42.318 1627.49 45.7185 1629 48.3634Z" fill="#006E61" fill-opacity="0.14"/>
<path d="M1945.98 49.119C1945.61 49.4968 1945.23 49.8747 1944.85 50.2525C1942.96 52.5196 1941.07 54.7866 1939.18 57.0536L1938.81 57.4315C1933.14 51.0082 1916.13 35.139 1885.53 42.6957C1878.35 44.5849 1870.79 49.8747 1862.1 56.2979C1860.59 57.4315 1858.7 58.9428 1856.81 60.4542C1855.3 61.5877 1854.17 62.7212 1852.66 63.4769C1846.61 68.0109 1839.81 73.3007 1832.63 77.8347C1828.85 80.1018 1824.7 82.3688 1820.16 84.6358C1807.7 90.6813 1793.72 94.4597 1777.09 94.4597C1766.13 94.4597 1753.66 92.5705 1740.44 88.4142C1734.77 85.0137 1729.48 81.6131 1724.57 77.8347C1718.15 72.9228 1712.48 67.6331 1706.81 61.9655C1721.17 69.9001 1734.02 75.1899 1746.11 78.5904C1771.8 85.7694 1791.83 83.8802 1808.45 77.8347C1812.61 76.3234 1816.76 74.4342 1820.92 72.1672C1829.23 67.6331 1836.79 62.3433 1843.97 57.0536C1846.23 55.1644 1848.5 53.6531 1850.77 51.7639C1851.52 51.0082 1852.28 50.6304 1853.04 49.8747C1863.62 41.5622 1873.06 34.7611 1883.26 32.1162C1898.75 28.3379 1911.6 29.4714 1921.42 32.8719C1926.34 34.3833 1930.49 36.6503 1933.89 38.5395C1936.16 40.0509 1938.43 41.5622 1940.32 43.0736C1942.58 45.7184 1944.47 47.6076 1945.98 49.119Z" fill="#006E61" fill-opacity="0.14"/>
<path d="M1934.65 62.3434C1929.36 68.0109 1923.31 72.9228 1917.27 77.8347C1912.36 81.6131 1907.07 85.3915 1901.4 88.4142C1887.42 92.9483 1874.95 94.4597 1863.99 94.4597C1847.37 94.4597 1833.01 90.3034 1820.92 84.6358C1816.76 82.7467 1812.61 80.4796 1808.45 77.8347C1801.27 73.3007 1794.47 68.3888 1788.43 63.4769C1786.91 62.3434 1785.78 61.2098 1784.27 60.4542C1782.38 58.9428 1780.87 57.8093 1778.98 56.2979C1770.29 49.8747 1762.73 44.5849 1755.55 42.6957C1725.33 35.139 1708.32 50.2525 1702.66 57.0536L1702.28 56.6758C1700.39 54.4087 1698.5 52.5196 1696.99 50.2525C1696.61 49.8747 1696.23 49.119 1695.85 48.7412C1697.37 46.852 1699.63 44.9628 1701.9 43.0736C1706.43 39.2952 1712.48 35.5168 1720.41 32.8719C1730.24 29.4714 1743.08 28.3379 1758.58 32.1162C1768.78 34.7611 1778.22 41.5622 1789.18 49.8747C1789.94 50.6304 1790.69 51.0082 1791.45 51.7639C1793.72 53.6531 1795.98 55.1644 1798.25 57.0536C1805.43 62.3433 1812.98 67.6331 1821.3 72.1672C1825.08 74.4342 1829.23 76.3234 1833.77 77.8347C1850.39 83.8802 1870.42 86.1472 1896.11 78.5904C1907.07 75.5677 1920.29 69.9001 1934.65 62.3434Z" fill="#006E61" fill-opacity="0.14"/>
<path d="M1935.4 61.5876C1935.4 61.9655 1935.03 61.9654 1935.03 62.3433C1929.74 68.0109 1923.69 72.9228 1917.65 77.8347C1912.36 78.5903 1907.07 78.9682 1902.53 78.9682C1900.27 78.9682 1898 78.9682 1895.73 78.5904C1879.48 77.4568 1865.88 71.4114 1853.79 63.4768C1850.39 61.2098 1847.37 59.3206 1844.35 57.0535C1838.3 52.5195 1832.25 47.6076 1826.59 42.6957C1824.7 41.1843 1822.81 39.6729 1821.3 38.1616C1824.32 35.8945 1826.96 33.2497 1829.99 30.9827C1831.12 32.1162 1832.63 33.2497 1833.77 34.3832C1840.19 40.0508 1846.61 45.3405 1853.41 50.2524C1856.44 52.5195 1859.84 54.7865 1862.86 56.6757C1881.37 68.0109 1903.29 73.3006 1935.4 61.5876Z" fill="#006E61" fill-opacity="0.14"/>
<path d="M1946.74 48.3634C1946.74 48.7412 1946.36 49.1191 1945.98 49.1191C1945.61 49.4969 1945.23 49.8747 1944.85 50.2526C1942.96 52.5196 1941.07 54.7866 1939.18 57.0537C1936.54 52.5196 1930.49 42.6958 1921.05 33.2498C1908.96 20.7812 1891.2 9.06813 1870.04 11.713C1854.55 13.6022 1841.7 21.5368 1829.23 30.9828C1826.21 33.2498 1823.56 35.5169 1820.54 38.1617C1818.65 39.6731 1816.76 41.1845 1815.25 42.6958C1809.58 47.6077 1803.92 52.5196 1797.49 57.0537C1794.47 59.3207 1791.45 61.5878 1788.05 63.477C1775.96 71.4116 1762.35 77.0792 1746.11 78.5905C1743.84 78.5905 1741.95 78.9683 1739.31 78.9683C1734.77 78.9683 1729.86 78.5905 1724.57 77.8348C1718.15 72.9229 1712.48 67.6332 1706.81 61.9656C1738.55 72.9229 1760.09 68.011 1778.98 56.6758C1782.38 54.7866 1785.4 52.5196 1788.43 50.2526C1795.23 45.3407 1801.27 40.0509 1808.07 34.3833C1809.21 33.2498 1810.72 32.1163 1811.85 30.9828C1812.98 29.8493 1814.12 29.0936 1815.63 27.9601C1817.14 26.8266 1819.03 25.3152 1820.54 23.8039C1822.43 22.2925 1824.32 20.7812 1826.21 19.6476C1826.59 19.2698 1826.59 19.2698 1826.96 18.8919C1838.68 10.2017 1851.15 3.40055 1866.26 0.755681C1867.02 0.755681 1867.77 0.377848 1868.53 0.377848C1871.55 8.64242e-06 1874.19 0 1877.22 0C1889.31 0 1901.4 4.15622 1912.73 11.713C1916.51 13.98 1919.91 17.0028 1923.69 20.0255C1925.58 21.5368 1927.47 23.426 1929.36 25.6931C1933.52 30.2271 1937.29 34.7612 1940.32 38.5396C1942.96 42.318 1945.23 45.7185 1946.74 48.3634Z" fill="#006E61" fill-opacity="0.14"/>
<path d="M525.687 49.119C525.309 49.4968 524.931 49.8747 524.553 50.2525C522.664 52.5196 520.775 54.7866 518.886 57.0536L518.508 57.4315C512.84 51.0082 495.838 35.139 465.233 42.6957C458.054 44.5849 450.497 49.8747 441.807 56.2979C440.295 57.4315 438.406 58.9428 436.517 60.4542C435.006 61.5877 433.872 62.7212 432.361 63.4769C426.315 68.0109 419.514 73.3007 412.335 77.8347C408.557 80.1018 404.401 82.3688 399.867 84.6358C387.398 90.6813 373.418 94.4597 356.793 94.4597C345.836 94.4597 333.367 92.5705 320.143 88.4142C314.475 85.0137 309.185 81.6131 304.273 77.8347C297.85 72.9228 292.183 67.6331 286.515 61.9655C300.873 69.9001 313.719 75.1899 325.81 78.5904C351.503 85.7694 371.529 83.8802 388.154 77.8347C392.31 76.3234 396.466 74.4342 400.622 72.1672C408.935 67.6331 416.492 62.3433 423.671 57.0536C425.938 55.1644 428.205 53.6531 430.472 51.7639C431.227 51.0082 431.983 50.6304 432.739 49.8747C443.318 41.5622 452.764 34.7611 462.966 32.1162C478.457 28.3379 491.304 29.4714 501.127 32.8719C506.039 34.3833 510.196 36.6503 513.596 38.5395C515.863 40.0509 518.13 41.5622 520.019 43.0736C522.286 45.7184 524.176 47.6076 525.687 49.119Z" fill="#006E61" fill-opacity="0.14"/>
<path d="M514.352 62.3434C509.062 68.0109 503.017 72.9228 496.971 77.8347C492.059 81.6131 486.77 85.3915 481.102 88.4142C467.122 92.9483 454.653 94.4597 443.696 94.4597C427.071 94.4597 412.713 90.3034 400.622 84.6358C396.466 82.7467 392.31 80.4796 388.154 77.8347C380.975 73.3007 374.173 68.3888 368.128 63.4769C366.617 62.3434 365.483 61.2098 363.972 60.4542C362.083 58.9428 360.571 57.8093 358.682 56.2979C349.992 49.8747 342.435 44.5849 335.256 42.6957C305.029 35.139 288.026 50.2525 282.359 57.0536L281.981 56.6758C280.092 54.4087 278.202 52.5196 276.691 50.2525C276.313 49.8747 275.935 49.119 275.558 48.7412C277.069 46.852 279.336 44.9628 281.603 43.0736C286.137 39.2952 292.182 35.5168 300.117 32.8719C309.941 29.4714 322.787 28.3379 338.279 32.1162C348.48 34.7611 357.926 41.5622 368.884 49.8747C369.639 50.6304 370.395 51.0082 371.151 51.7639C373.418 53.6531 375.685 55.1644 377.952 57.0536C385.131 62.3433 392.688 67.6331 401 72.1672C404.778 74.4342 408.935 76.3234 413.469 77.8347C430.094 83.8802 450.119 86.1472 475.812 78.5904C486.769 75.5677 499.994 69.9001 514.352 62.3434Z" fill="#006E61" fill-opacity="0.14"/>
<path d="M515.107 61.5876C515.107 61.9655 514.729 61.9654 514.729 62.3433C509.44 68.0109 503.394 72.9228 497.349 77.8347C492.059 78.5903 486.769 78.9682 482.235 78.9682C479.968 78.9682 477.701 78.9682 475.434 78.5904C459.187 77.4568 445.585 71.4114 433.494 63.4768C430.093 61.2098 427.071 59.3206 424.048 57.0535C418.003 52.5195 411.957 47.6076 406.29 42.6957C404.4 41.1843 402.511 39.6729 401 38.1616C404.023 35.8945 406.667 33.2497 409.69 30.9827C410.824 32.1162 412.335 33.2497 413.469 34.3832C419.892 40.0508 426.315 45.3405 433.116 50.2524C436.139 52.5195 439.539 54.7865 442.562 56.6757C461.076 68.0109 482.991 73.3006 515.107 61.5876Z" fill="#006E61" fill-opacity="0.14"/>
<path d="M526.443 48.3634C526.443 48.7412 526.065 49.1191 525.687 49.1191C525.309 49.4969 524.931 49.8747 524.553 50.2526C522.664 52.5196 520.775 54.7866 518.886 57.0537C516.241 52.5196 510.196 42.6958 500.75 33.2498C488.659 20.7812 470.9 9.06813 449.741 11.713C434.25 13.6022 421.403 21.5368 408.935 30.9828C405.912 33.2498 403.267 35.5169 400.244 38.1617C398.355 39.6731 396.466 41.1845 394.955 42.6958C389.287 47.6077 383.62 52.5196 377.196 57.0537C374.174 59.3207 371.151 61.5878 367.75 63.477C355.659 71.4116 342.057 77.0792 325.81 78.5905C323.543 78.5905 321.654 78.9683 319.009 78.9683C314.475 78.9683 309.563 78.5905 304.273 77.8348C297.85 72.9229 292.183 67.6332 286.515 61.9656C318.253 72.9229 339.79 68.011 358.682 56.6758C362.083 54.7866 365.105 52.5196 368.128 50.2526C374.929 45.3407 380.975 40.0509 387.776 34.3833C388.909 33.2498 390.421 32.1163 391.554 30.9828C392.688 29.8493 393.821 29.0936 395.333 27.9601C396.844 26.8266 398.733 25.3152 400.244 23.8039C402.134 22.2925 404.023 20.7812 405.912 19.6476C406.29 19.2698 406.29 19.2698 406.668 18.8919C418.381 10.2017 430.849 3.40055 445.963 0.755681C446.719 0.755681 447.474 0.377848 448.23 0.377848C451.253 8.64242e-06 453.898 0 456.92 0C469.011 0 481.102 4.15622 492.437 11.713C496.216 13.98 499.616 17.0028 503.394 20.0255C505.284 21.5368 507.173 23.426 509.062 25.6931C513.218 30.2271 516.997 34.7612 520.019 38.5396C522.664 42.318 524.931 45.7185 526.443 48.3634Z" fill="#006E61" fill-opacity="0.14"/>
<path d="M1312.69 49.119C1312.31 49.4968 1311.93 49.8747 1311.55 50.2525C1309.66 52.5196 1307.78 54.7866 1305.89 57.0536L1305.51 57.4315C1299.84 51.0082 1282.84 35.139 1252.23 42.6957C1245.05 44.5849 1237.5 49.8747 1228.81 56.2979C1227.3 57.4315 1225.41 58.9428 1223.52 60.4542C1222.01 61.5877 1220.87 62.7212 1219.36 63.4769C1213.32 68.0109 1206.51 73.3007 1199.34 77.8347C1195.56 80.1018 1191.4 82.3688 1186.87 84.6358C1174.4 90.6813 1160.42 94.4597 1143.79 94.4597C1132.84 94.4597 1120.37 92.5705 1107.14 88.4142C1101.47 85.0137 1096.19 81.6131 1091.27 77.8347C1084.85 72.9228 1079.18 67.6331 1073.51 61.9655C1087.87 69.9001 1100.72 75.1899 1112.81 78.5904C1138.5 85.7694 1158.53 83.8802 1175.15 77.8347C1179.31 76.3234 1183.47 74.4342 1187.62 72.1672C1195.93 67.6331 1203.49 62.3433 1210.67 57.0536C1212.94 55.1644 1215.2 53.6531 1217.47 51.7639C1218.23 51.0082 1218.98 50.6304 1219.74 49.8747C1230.32 41.5622 1239.76 34.7611 1249.97 32.1162C1265.46 28.3379 1278.3 29.4714 1288.13 32.8719C1293.04 34.3833 1297.2 36.6503 1300.6 38.5395C1302.86 40.0509 1305.13 41.5622 1307.02 43.0736C1309.29 45.7184 1311.18 47.6076 1312.69 49.119Z" fill="#006E61" fill-opacity="0.14"/>
<path d="M1301.35 62.3434C1296.06 68.0109 1290.02 72.9228 1283.97 77.8347C1279.06 81.6131 1273.77 85.3915 1268.1 88.4142C1254.12 92.9483 1241.65 94.4597 1230.7 94.4597C1214.07 94.4597 1199.71 90.3034 1187.62 84.6358C1183.47 82.7467 1179.31 80.4796 1175.15 77.8347C1167.97 73.3007 1161.17 68.3888 1155.13 63.4769C1153.62 62.3434 1152.48 61.2098 1150.97 60.4542C1149.08 58.9428 1147.57 57.8093 1145.68 56.2979C1136.99 49.8747 1129.43 44.5849 1122.26 42.6957C1092.03 35.139 1075.03 50.2525 1069.36 57.0536L1068.98 56.6758C1067.09 54.4087 1065.2 52.5196 1063.69 50.2525C1063.31 49.8747 1062.94 49.119 1062.56 48.7412C1064.07 46.852 1066.34 44.9628 1068.6 43.0736C1073.14 39.2952 1079.18 35.5168 1087.12 32.8719C1096.94 29.4714 1109.79 28.3379 1125.28 32.1162C1135.48 34.7611 1144.93 41.5622 1155.88 49.8747C1156.64 50.6304 1157.4 51.0082 1158.15 51.7639C1160.42 53.6531 1162.68 55.1644 1164.95 57.0536C1172.13 62.3433 1179.69 67.6331 1188 72.1672C1191.78 74.4342 1195.93 76.3234 1200.47 77.8347C1217.09 83.8802 1237.12 86.1472 1262.81 78.5904C1273.77 75.5677 1286.99 69.9001 1301.35 62.3434Z" fill="#006E61" fill-opacity="0.14"/>
<path d="M1302.11 61.5876C1302.11 61.9655 1301.73 61.9654 1301.73 62.3433C1296.44 68.0109 1290.39 72.9228 1284.35 77.8347C1279.06 78.5903 1273.77 78.9682 1269.24 78.9682C1266.97 78.9682 1264.7 78.9682 1262.43 78.5904C1246.19 77.4568 1232.58 71.4114 1220.49 63.4768C1217.09 61.2098 1214.07 59.3206 1211.05 57.0535C1205 52.5195 1198.96 47.6076 1193.29 42.6957C1191.4 41.1843 1189.51 39.6729 1188 38.1616C1191.02 35.8945 1193.67 33.2497 1196.69 30.9827C1197.82 32.1162 1199.33 33.2497 1200.47 34.3832C1206.89 40.0508 1213.32 45.3405 1220.12 50.2524C1223.14 52.5195 1226.54 54.7865 1229.56 56.6757C1248.08 68.0109 1269.99 73.3006 1302.11 61.5876Z" fill="#006E61" fill-opacity="0.14"/>
<path d="M1313.44 48.3634C1313.44 48.7412 1313.06 49.1191 1312.69 49.1191C1312.31 49.4969 1311.93 49.8747 1311.55 50.2526C1309.66 52.5196 1307.78 54.7866 1305.89 57.0537C1303.24 52.5196 1297.2 42.6958 1287.75 33.2498C1275.66 20.7812 1257.9 9.06813 1236.74 11.713C1221.25 13.6022 1208.4 21.5368 1195.93 30.9828C1192.91 33.2498 1190.27 35.5169 1187.24 38.1617C1185.36 39.6731 1183.47 41.1845 1181.95 42.6958C1176.29 47.6077 1170.62 52.5196 1164.2 57.0537C1161.17 59.3207 1158.15 61.5878 1154.75 63.477C1142.66 71.4116 1129.06 77.0792 1112.81 78.5905C1110.54 78.5905 1108.65 78.9683 1106.01 78.9683C1101.47 78.9683 1096.56 78.5905 1091.27 77.8348C1084.85 72.9229 1079.18 67.6332 1073.51 61.9656C1105.25 72.9229 1126.79 68.011 1145.68 56.6758C1149.08 54.7866 1152.11 52.5196 1155.13 50.2526C1161.93 45.3407 1167.97 40.0509 1174.78 34.3833C1175.91 33.2498 1177.42 32.1163 1178.55 30.9828C1179.69 29.8493 1180.82 29.0936 1182.33 27.9601C1183.84 26.8266 1185.73 25.3152 1187.24 23.8039C1189.13 22.2925 1191.02 20.7812 1192.91 19.6476C1193.29 19.2698 1193.29 19.2698 1193.67 18.8919C1205.38 10.2017 1217.85 3.40055 1232.96 0.755681C1233.72 0.755681 1234.47 0.377848 1235.23 0.377848C1238.25 8.64242e-06 1240.9 0 1243.92 0C1256.01 0 1268.1 4.15622 1279.44 11.713C1283.22 13.98 1286.62 17.0028 1290.39 20.0255C1292.28 21.5368 1294.17 23.426 1296.06 25.6931C1300.22 30.2271 1304 34.7612 1307.02 38.5396C1309.66 42.318 1311.93 45.7185 1313.44 48.3634Z" fill="#006E61" fill-opacity="0.14"/>
<path d="M365.832 49.119C365.454 49.4968 365.077 49.8747 364.699 50.2525C362.809 52.5196 360.92 54.7866 359.031 57.0536L358.653 57.4315C352.986 51.0082 335.983 35.139 305.378 42.6957C298.199 44.5849 290.642 49.8747 281.952 56.2979C280.441 57.4315 278.551 58.9428 276.662 60.4542C275.151 61.5877 274.017 62.7212 272.506 63.4769C266.461 68.0109 259.659 73.3007 252.481 77.8347C248.702 80.1018 244.546 82.3688 240.012 84.6358C227.543 90.6813 213.563 94.4597 196.938 94.4597C185.981 94.4597 173.512 92.5705 160.288 88.4142C154.62 85.0137 149.33 81.6131 144.419 77.8347C137.995 72.9228 132.328 67.6331 126.66 61.9655C141.018 69.9001 153.865 75.1899 165.955 78.5904C191.648 85.7694 211.674 83.8802 228.299 77.8347C232.455 76.3234 236.611 74.4342 240.768 72.1672C249.08 67.6331 256.637 62.3433 263.816 57.0536C266.083 55.1644 268.35 53.6531 270.617 51.7639C271.372 51.0082 272.128 50.6304 272.884 49.8747C283.463 41.5622 292.909 34.7611 303.111 32.1162C318.602 28.3379 331.449 29.4714 341.273 32.8719C346.185 34.3833 350.341 36.6503 353.741 38.5395C356.008 40.0509 358.275 41.5622 360.165 43.0736C362.432 45.7184 364.321 47.6076 365.832 49.119Z" fill="#006E61" fill-opacity="0.14"/>
<path d="M354.497 62.3434C349.207 68.0109 343.162 72.9228 337.116 77.8347C332.204 81.6131 326.915 85.3915 321.247 88.4142C307.267 92.9483 294.798 94.4597 283.841 94.4597C267.216 94.4597 252.858 90.3034 240.767 84.6358C236.611 82.7467 232.455 80.4796 228.299 77.8347C221.12 73.3007 214.319 68.3888 208.273 63.4769C206.762 62.3434 205.628 61.2098 204.117 60.4542C202.228 58.9428 200.717 57.8093 198.827 56.2979C190.137 49.8747 182.58 44.5849 175.401 42.6957C145.174 35.139 128.171 50.2525 122.504 57.0536L122.126 56.6758C120.237 54.4087 118.348 52.5196 116.836 50.2525C116.458 49.8747 116.081 49.119 115.703 48.7412C117.214 46.852 119.481 44.9628 121.748 43.0736C126.282 39.2952 132.328 35.5168 140.262 32.8719C150.086 29.4714 162.933 28.3379 178.424 32.1162C188.626 34.7611 198.072 41.5622 209.029 49.8747C209.785 50.6304 210.54 51.0082 211.296 51.7639C213.563 53.6531 215.83 55.1644 218.097 57.0536C225.276 62.3433 232.833 67.6331 241.145 72.1672C244.924 74.4342 249.08 76.3234 253.614 77.8347C270.239 83.8802 290.264 86.1472 315.957 78.5904C326.915 75.5677 340.139 69.9001 354.497 62.3434Z" fill="#006E61" fill-opacity="0.14"/>
<path d="M355.252 61.5876C355.252 61.9655 354.875 61.9654 354.875 62.3433C349.585 68.0109 343.539 72.9228 337.494 77.8347C332.204 78.5903 326.915 78.9682 322.38 78.9682C320.113 78.9682 317.846 78.9682 315.579 78.5904C299.332 77.4568 285.73 71.4114 273.639 63.4768C270.239 61.2098 267.216 59.3206 264.193 57.0535C258.148 52.5195 252.102 47.6076 246.435 42.6957C244.546 41.1843 242.656 39.6729 241.145 38.1616C244.168 35.8945 246.813 33.2497 249.835 30.9827C250.969 32.1162 252.48 33.2497 253.614 34.3832C260.037 40.0508 266.46 45.3405 273.261 50.2524C276.284 52.5195 279.685 54.7865 282.707 56.6757C301.221 68.0109 323.136 73.3006 355.252 61.5876Z" fill="#006E61" fill-opacity="0.14"/>
<path d="M366.588 48.3634C366.588 48.7412 366.21 49.1191 365.832 49.1191C365.454 49.4969 365.077 49.8747 364.699 50.2526C362.809 52.5196 360.92 54.7866 359.031 57.0537C356.386 52.5196 350.341 42.6958 340.895 33.2498C328.804 20.7812 311.046 9.06813 289.887 11.713C274.395 13.6022 261.549 21.5368 249.08 30.9828C246.057 33.2498 243.412 35.5169 240.39 38.1617C238.5 39.6731 236.611 41.1845 235.1 42.6958C229.432 47.6077 223.765 52.5196 217.341 57.0537C214.319 59.3207 211.296 61.5878 207.896 63.477C195.805 71.4116 182.202 77.0792 165.955 78.5905C163.688 78.5905 161.799 78.9683 159.154 78.9683C154.62 78.9683 149.708 78.5905 144.419 77.8348C137.995 72.9229 132.328 67.6332 126.66 61.9656C158.399 72.9229 179.935 68.011 198.827 56.6758C202.228 54.7866 205.251 52.5196 208.273 50.2526C215.074 45.3407 221.12 40.0509 227.921 34.3833C229.055 33.2498 230.566 32.1163 231.699 30.9828C232.833 29.8493 233.966 29.0936 235.478 27.9601C236.989 26.8266 238.878 25.3152 240.39 23.8039C242.279 22.2925 244.168 20.7812 246.057 19.6476C246.435 19.2698 246.435 19.2698 246.813 18.8919C258.526 10.2017 270.995 3.40055 286.108 0.755681C286.864 0.755681 287.62 0.377848 288.375 0.377848C291.398 8.64242e-06 294.043 0 297.065 0C309.156 0 321.247 4.15622 332.582 11.713C336.361 13.98 339.761 17.0028 343.54 20.0255C345.429 21.5368 347.318 23.426 349.207 25.6931C353.363 30.2271 357.142 34.7612 360.165 38.5396C362.809 42.318 365.077 45.7185 366.588 48.3634Z" fill="#006E61" fill-opacity="0.14"/>
<path d="M1152.83 49.119C1152.45 49.4968 1152.08 49.8747 1151.7 50.2525C1149.81 52.5196 1147.92 54.7866 1146.03 57.0536L1145.65 57.4315C1139.99 51.0082 1122.98 35.139 1092.38 42.6957C1085.2 44.5849 1077.64 49.8747 1068.95 56.2979C1067.44 57.4315 1065.55 58.9428 1063.66 60.4542C1062.15 61.5877 1061.02 62.7212 1059.51 63.4769C1053.46 68.0109 1046.66 73.3007 1039.48 77.8347C1035.7 80.1018 1031.55 82.3688 1027.01 84.6358C1014.54 90.6813 1000.56 94.4597 983.938 94.4597C972.981 94.4597 960.512 92.5705 947.288 88.4142C941.62 85.0137 936.331 81.6131 931.419 77.8347C924.995 72.9228 919.328 67.6331 913.66 61.9655C928.018 69.9001 940.865 75.1899 952.955 78.5904C978.648 85.7694 998.674 83.8802 1015.3 77.8347C1019.46 76.3234 1023.61 74.4342 1027.77 72.1672C1036.08 67.6331 1043.64 62.3433 1050.82 57.0536C1053.08 55.1644 1055.35 53.6531 1057.62 51.7639C1058.37 51.0082 1059.13 50.6304 1059.88 49.8747C1070.46 41.5622 1079.91 34.7611 1090.11 32.1162C1105.6 28.3379 1118.45 29.4714 1128.27 32.8719C1133.18 34.3833 1137.34 36.6503 1140.74 38.5395C1143.01 40.0509 1145.28 41.5622 1147.16 43.0736C1149.43 45.7184 1151.32 47.6076 1152.83 49.119Z" fill="#006E61" fill-opacity="0.14"/>
<path d="M1141.5 62.3434C1136.21 68.0109 1130.16 72.9228 1124.12 77.8347C1119.2 81.6131 1113.91 85.3915 1108.25 88.4142C1094.27 92.9483 1081.8 94.4597 1070.84 94.4597C1054.22 94.4597 1039.86 90.3034 1027.77 84.6358C1023.61 82.7467 1019.45 80.4796 1015.3 77.8347C1008.12 73.3007 1001.32 68.3888 995.273 63.4769C993.762 62.3434 992.628 61.2098 991.117 60.4542C989.228 58.9428 987.717 57.8093 985.827 56.2979C977.137 49.8747 969.58 44.5849 962.401 42.6957C932.174 35.139 915.171 50.2525 909.504 57.0536L909.126 56.6758C907.237 54.4087 905.348 52.5196 903.836 50.2525C903.458 49.8747 903.081 49.119 902.703 48.7412C904.214 46.852 906.481 44.9628 908.748 43.0736C913.282 39.2952 919.328 35.5168 927.262 32.8719C937.086 29.4714 949.933 28.3379 965.424 32.1162C975.626 34.7611 985.072 41.5622 996.029 49.8747C996.785 50.6304 997.54 51.0082 998.296 51.7639C1000.56 53.6531 1002.83 55.1644 1005.1 57.0536C1012.28 62.3433 1019.83 67.6331 1028.15 72.1672C1031.92 74.4342 1036.08 76.3234 1040.61 77.8347C1057.24 83.8802 1077.26 86.1472 1102.96 78.5904C1113.91 75.5677 1127.14 69.9001 1141.5 62.3434Z" fill="#006E61" fill-opacity="0.14"/>
<path d="M1142.25 61.5876C1142.25 61.9655 1141.87 61.9654 1141.87 62.3433C1136.58 68.0109 1130.54 72.9228 1124.49 77.8347C1119.2 78.5903 1113.91 78.9682 1109.38 78.9682C1107.11 78.9682 1104.85 78.9682 1102.58 78.5904C1086.33 77.4568 1072.73 71.4114 1060.64 63.4768C1057.24 61.2098 1054.22 59.3206 1051.19 57.0535C1045.15 52.5195 1039.1 47.6076 1033.43 42.6957C1031.55 41.1843 1029.66 39.6729 1028.15 38.1616C1031.17 35.8945 1033.81 33.2497 1036.84 30.9827C1037.97 32.1162 1039.48 33.2497 1040.61 34.3832C1047.04 40.0508 1053.46 45.3405 1060.26 50.2524C1063.28 52.5195 1066.68 54.7865 1069.71 56.6757C1088.22 68.0109 1110.14 73.3006 1142.25 61.5876Z" fill="#006E61" fill-opacity="0.14"/>
<path d="M1153.59 48.3634C1153.59 48.7412 1153.21 49.1191 1152.83 49.1191C1152.45 49.4969 1152.08 49.8747 1151.7 50.2526C1149.81 52.5196 1147.92 54.7866 1146.03 57.0537C1143.39 52.5196 1137.34 42.6958 1127.89 33.2498C1115.8 20.7812 1098.05 9.06813 1076.89 11.713C1061.4 13.6022 1048.55 21.5368 1036.08 30.9828C1033.06 33.2498 1030.41 35.5169 1027.39 38.1617C1025.5 39.6731 1023.61 41.1845 1022.1 42.6958C1016.43 47.6077 1010.76 52.5196 1004.34 57.0537C1001.32 59.3207 998.296 61.5878 994.896 63.477C982.805 71.4116 969.202 77.0792 952.955 78.5905C950.688 78.5905 948.799 78.9683 946.154 78.9683C941.62 78.9683 936.708 78.5905 931.419 77.8348C924.995 72.9229 919.328 67.6332 913.66 61.9656C945.399 72.9229 966.935 68.011 985.827 56.6758C989.228 54.7866 992.251 52.5196 995.273 50.2526C1002.07 45.3407 1008.12 40.0509 1014.92 34.3833C1016.05 33.2498 1017.57 32.1163 1018.7 30.9828C1019.83 29.8493 1020.97 29.0936 1022.48 27.9601C1023.99 26.8266 1025.88 25.3152 1027.39 23.8039C1029.28 22.2925 1031.17 20.7812 1033.06 19.6476C1033.44 19.2698 1033.44 19.2698 1033.81 18.8919C1045.53 10.2017 1057.99 3.40055 1073.11 0.755681C1073.86 0.755681 1074.62 0.377848 1075.38 0.377848C1078.4 8.64242e-06 1081.04 0 1084.07 0C1096.16 0 1108.25 4.15622 1119.58 11.713C1123.36 13.98 1126.76 17.0028 1130.54 20.0255C1132.43 21.5368 1134.32 23.426 1136.21 25.6931C1140.36 30.2271 1144.14 34.7612 1147.16 38.5396C1149.81 42.318 1152.08 45.7185 1153.59 48.3634Z" fill="#006E61" fill-opacity="0.14"/>
<path d="M681.39 49.119C681.012 49.4968 680.634 49.8747 680.256 50.2525C678.367 52.5196 676.478 54.7866 674.589 57.0536L674.211 57.4315C668.543 51.0082 651.54 35.139 620.935 42.6957C613.757 44.5849 606.2 49.8747 597.509 56.2979C595.998 57.4315 594.109 58.9428 592.22 60.4542C590.708 61.5877 589.575 62.7212 588.063 63.4769C582.018 68.0109 575.217 73.3007 568.038 77.8347C564.26 80.1018 560.103 82.3688 555.569 84.6358C543.101 90.6813 529.121 94.4597 512.496 94.4597C501.538 94.4597 489.07 92.5705 475.845 88.4142C470.178 85.0137 464.888 81.6131 459.976 77.8347C453.553 72.9228 447.885 67.6331 442.218 61.9655C456.576 69.9001 469.422 75.1899 481.513 78.5904C507.206 85.7694 527.231 83.8802 543.856 77.8347C548.013 76.3234 552.169 74.4342 556.325 72.1672C564.637 67.6331 572.194 62.3433 579.373 57.0536C581.64 55.1644 583.907 53.6531 586.174 51.7639C586.93 51.0082 587.686 50.6304 588.441 49.8747C599.021 41.5622 608.467 34.7611 618.668 32.1162C634.16 28.3379 647.006 29.4714 656.83 32.8719C661.742 34.3833 665.898 36.6503 669.299 38.5395C671.566 40.0509 673.833 41.5622 675.722 43.0736C677.989 45.7184 679.878 47.6076 681.39 49.119Z" fill="#006E61" fill-opacity="0.14"/>
<path d="M670.054 62.3434C664.765 68.0109 658.719 72.9228 652.674 77.8347C647.762 81.6131 642.472 85.3915 636.805 88.4142C622.825 92.9483 610.356 94.4597 599.398 94.4597C582.774 94.4597 568.416 90.3034 556.325 84.6358C552.169 82.7467 548.012 80.4796 543.856 77.8347C536.677 73.3007 529.876 68.3888 523.831 63.4769C522.319 62.3434 521.186 61.2098 519.675 60.4542C517.785 58.9428 516.274 57.8093 514.385 56.2979C505.694 49.8747 498.138 44.5849 490.959 42.6957C460.732 35.139 443.729 50.2525 438.061 57.0536L437.684 56.6758C435.794 54.4087 433.905 52.5196 432.394 50.2525C432.016 49.8747 431.638 49.119 431.26 48.7412C432.772 46.852 435.039 44.9628 437.306 43.0736C441.84 39.2952 447.885 35.5168 455.82 32.8719C465.644 29.4714 478.49 28.3379 493.981 32.1162C504.183 34.7611 513.629 41.5622 524.586 49.8747C525.342 50.6304 526.098 51.0082 526.853 51.7639C529.12 53.6531 531.388 55.1644 533.655 57.0536C540.833 62.3433 548.39 67.6331 556.703 72.1672C560.481 74.4342 564.637 76.3234 569.171 77.8347C585.796 83.8802 605.822 86.1472 631.515 78.5904C642.472 75.5677 655.697 69.9001 670.054 62.3434Z" fill="#006E61" fill-opacity="0.14"/>
<path d="M670.81 61.5876C670.81 61.9655 670.432 61.9654 670.432 62.3433C665.142 68.0109 659.097 72.9228 653.051 77.8347C647.762 78.5903 642.472 78.9682 637.938 78.9682C635.671 78.9682 633.404 78.9682 631.137 78.5904C614.89 77.4568 601.288 71.4114 589.197 63.4768C585.796 61.2098 582.773 59.3206 579.751 57.0535C573.705 52.5195 567.66 47.6076 561.992 42.6957C560.103 41.1843 558.214 39.6729 556.703 38.1616C559.725 35.8945 562.37 33.2497 565.393 30.9827C566.526 32.1162 568.038 33.2497 569.171 34.3832C575.594 40.0508 582.018 45.3405 588.819 50.2524C591.842 52.5195 595.242 54.7865 598.265 56.6757C616.779 68.0109 638.694 73.3006 670.81 61.5876Z" fill="#006E61" fill-opacity="0.14"/>
<path d="M682.145 48.3634C682.145 48.7412 681.768 49.1191 681.39 49.1191C681.012 49.4969 680.634 49.8747 680.256 50.2526C678.367 52.5196 676.478 54.7866 674.589 57.0537C671.944 52.5196 665.898 42.6958 656.452 33.2498C644.361 20.7812 626.603 9.06813 605.444 11.713C589.953 13.6022 577.106 21.5368 564.637 30.9828C561.615 33.2498 558.97 35.5169 555.947 38.1617C554.058 39.6731 552.169 41.1845 550.657 42.6958C544.99 47.6077 539.322 52.5196 532.899 57.0537C529.876 59.3207 526.854 61.5878 523.453 63.477C511.362 71.4116 497.76 77.0792 481.513 78.5905C479.246 78.5905 477.357 78.9683 474.712 78.9683C470.178 78.9683 465.266 78.5905 459.976 77.8348C453.553 72.9229 447.885 67.6332 442.218 61.9656C473.956 72.9229 495.493 68.011 514.385 56.6758C517.785 54.7866 520.808 52.5196 523.831 50.2526C530.632 45.3407 536.677 40.0509 543.478 34.3833C544.612 33.2498 546.123 32.1163 547.257 30.9828C548.39 29.8493 549.524 29.0936 551.035 27.9601C552.547 26.8266 554.436 25.3152 555.947 23.8039C557.836 22.2925 559.725 20.7812 561.615 19.6476C561.993 19.2698 561.993 19.2698 562.37 18.8919C574.083 10.2017 586.552 3.40055 601.666 0.755681C602.421 0.755681 603.177 0.377848 603.933 0.377848C606.955 8.64242e-06 609.6 0 612.623 0C624.714 0 636.805 4.15622 648.14 11.713C651.918 13.98 655.319 17.0028 659.097 20.0255C660.986 21.5368 662.876 23.426 664.765 25.6931C668.921 30.2271 672.699 34.7612 675.722 38.5396C678.367 42.318 680.634 45.7185 682.145 48.3634Z" fill="#006E61" fill-opacity="0.14"/>
<path d="M1468.39 49.119C1468.01 49.4968 1467.63 49.8747 1467.26 50.2525C1465.37 52.5196 1463.48 54.7866 1461.59 57.0536L1461.21 57.4315C1455.54 51.0082 1438.54 35.139 1407.94 42.6957C1400.76 44.5849 1393.2 49.8747 1384.51 56.2979C1383 57.4315 1381.11 58.9428 1379.22 60.4542C1377.71 61.5877 1376.57 62.7212 1375.06 63.4769C1369.02 68.0109 1362.22 73.3007 1355.04 77.8347C1351.26 80.1018 1347.1 82.3688 1342.57 84.6358C1330.1 90.6813 1316.12 94.4597 1299.5 94.4597C1288.54 94.4597 1276.07 92.5705 1262.85 88.4142C1257.18 85.0137 1251.89 81.6131 1246.98 77.8347C1240.55 72.9228 1234.89 67.6331 1229.22 61.9655C1243.58 69.9001 1256.42 75.1899 1268.51 78.5904C1294.21 85.7694 1314.23 83.8802 1330.86 77.8347C1335.01 76.3234 1339.17 74.4342 1343.33 72.1672C1351.64 67.6331 1359.19 62.3433 1366.37 57.0536C1368.64 55.1644 1370.91 53.6531 1373.17 51.7639C1373.93 51.0082 1374.69 50.6304 1375.44 49.8747C1386.02 41.5622 1395.47 34.7611 1405.67 32.1162C1421.16 28.3379 1434.01 29.4714 1443.83 32.8719C1448.74 34.3833 1452.9 36.6503 1456.3 38.5395C1458.57 40.0509 1460.83 41.5622 1462.72 43.0736C1464.99 45.7184 1466.88 47.6076 1468.39 49.119Z" fill="#006E61" fill-opacity="0.14"/>
<path d="M1457.05 62.3434C1451.76 68.0109 1445.72 72.9228 1439.67 77.8347C1434.76 81.6131 1429.47 85.3915 1423.8 88.4142C1409.82 92.9483 1397.36 94.4597 1386.4 94.4597C1369.77 94.4597 1355.42 90.3034 1343.32 84.6358C1339.17 82.7467 1335.01 80.4796 1330.86 77.8347C1323.68 73.3007 1316.88 68.3888 1310.83 63.4769C1309.32 62.3434 1308.19 61.2098 1306.67 60.4542C1304.79 58.9428 1303.27 57.8093 1301.38 56.2979C1292.69 49.8747 1285.14 44.5849 1277.96 42.6957C1247.73 35.139 1230.73 50.2525 1225.06 57.0536L1224.68 56.6758C1222.79 54.4087 1220.91 52.5196 1219.39 50.2525C1219.02 49.8747 1218.64 49.119 1218.26 48.7412C1219.77 46.852 1222.04 44.9628 1224.31 43.0736C1228.84 39.2952 1234.89 35.5168 1242.82 32.8719C1252.64 29.4714 1265.49 28.3379 1280.98 32.1162C1291.18 34.7611 1300.63 41.5622 1311.59 49.8747C1312.34 50.6304 1313.1 51.0082 1313.85 51.7639C1316.12 53.6531 1318.39 55.1644 1320.65 57.0536C1327.83 62.3433 1335.39 67.6331 1343.7 72.1672C1347.48 74.4342 1351.64 76.3234 1356.17 77.8347C1372.8 83.8802 1392.82 86.1472 1418.51 78.5904C1429.47 75.5677 1442.7 69.9001 1457.05 62.3434Z" fill="#006E61" fill-opacity="0.14"/>
<path d="M1457.81 61.5876C1457.81 61.9655 1457.43 61.9654 1457.43 62.3433C1452.14 68.0109 1446.1 72.9228 1440.05 77.8347C1434.76 78.5903 1429.47 78.9682 1424.94 78.9682C1422.67 78.9682 1420.4 78.9682 1418.14 78.5904C1401.89 77.4568 1388.29 71.4114 1376.2 63.4768C1372.8 61.2098 1369.77 59.3206 1366.75 57.0535C1360.71 52.5195 1354.66 47.6076 1348.99 42.6957C1347.1 41.1843 1345.21 39.6729 1343.7 38.1616C1346.73 35.8945 1349.37 33.2497 1352.39 30.9827C1353.53 32.1162 1355.04 33.2497 1356.17 34.3832C1362.59 40.0508 1369.02 45.3405 1375.82 50.2524C1378.84 52.5195 1382.24 54.7865 1385.26 56.6757C1403.78 68.0109 1425.69 73.3006 1457.81 61.5876Z" fill="#006E61" fill-opacity="0.14"/>
<path d="M1469.15 48.3634C1469.15 48.7412 1468.77 49.1191 1468.39 49.1191C1468.01 49.4969 1467.63 49.8747 1467.26 50.2526C1465.37 52.5196 1463.48 54.7866 1461.59 57.0537C1458.94 52.5196 1452.9 42.6958 1443.45 33.2498C1431.36 20.7812 1413.6 9.06813 1392.44 11.713C1376.95 13.6022 1364.11 21.5368 1351.64 30.9828C1348.61 33.2498 1345.97 35.5169 1342.95 38.1617C1341.06 39.6731 1339.17 41.1845 1337.66 42.6958C1331.99 47.6077 1326.32 52.5196 1319.9 57.0537C1316.88 59.3207 1313.85 61.5878 1310.45 63.477C1298.36 71.4116 1284.76 77.0792 1268.51 78.5905C1266.25 78.5905 1264.36 78.9683 1261.71 78.9683C1257.18 78.9683 1252.27 78.5905 1246.98 77.8348C1240.55 72.9229 1234.89 67.6332 1229.22 61.9656C1260.96 72.9229 1282.49 68.011 1301.38 56.6758C1304.79 54.7866 1307.81 52.5196 1310.83 50.2526C1317.63 45.3407 1323.68 40.0509 1330.48 34.3833C1331.61 33.2498 1333.12 32.1163 1334.26 30.9828C1335.39 29.8493 1336.52 29.0936 1338.04 27.9601C1339.55 26.8266 1341.44 25.3152 1342.95 23.8039C1344.84 22.2925 1346.73 20.7812 1348.61 19.6476C1348.99 19.2698 1348.99 19.2698 1349.37 18.8919C1361.08 10.2017 1373.55 3.40055 1388.67 0.755681C1389.42 0.755681 1390.18 0.377848 1390.93 0.377848C1393.96 8.64242e-06 1396.6 0 1399.62 0C1411.71 0 1423.8 4.15622 1435.14 11.713C1438.92 13.98 1442.32 17.0028 1446.1 20.0255C1447.99 21.5368 1449.88 23.426 1451.76 25.6931C1455.92 30.2271 1459.7 34.7612 1462.72 38.5396C1465.37 42.318 1467.63 45.7185 1469.15 48.3634Z" fill="#006E61" fill-opacity="0.14"/>
<path d="M1786.13 49.119C1785.75 49.4968 1785.37 49.8747 1785 50.2525C1783.11 52.5196 1781.22 54.7866 1779.33 57.0536L1778.95 57.4315C1773.28 51.0082 1756.28 35.139 1725.68 42.6957C1718.5 44.5849 1710.94 49.8747 1702.25 56.2979C1700.74 57.4315 1698.85 58.9428 1696.96 60.4542C1695.45 61.5877 1694.31 62.7212 1692.8 63.4769C1686.76 68.0109 1679.96 73.3007 1672.78 77.8347C1669 80.1018 1664.84 82.3688 1660.31 84.6358C1647.84 90.6813 1633.86 94.4597 1617.24 94.4597C1606.28 94.4597 1593.81 92.5705 1580.59 88.4142C1574.92 85.0137 1569.63 81.6131 1564.72 77.8347C1558.29 72.9228 1552.62 67.6331 1546.96 61.9655C1561.32 69.9001 1574.16 75.1899 1586.25 78.5904C1611.95 85.7694 1631.97 83.8802 1648.6 77.8347C1652.75 76.3234 1656.91 74.4342 1661.06 72.1672C1669.38 67.6331 1676.93 62.3433 1684.11 57.0536C1686.38 55.1644 1688.65 53.6531 1690.91 51.7639C1691.67 51.0082 1692.43 50.6304 1693.18 49.8747C1703.76 41.5622 1713.21 34.7611 1723.41 32.1162C1738.9 28.3379 1751.75 29.4714 1761.57 32.8719C1766.48 34.3833 1770.64 36.6503 1774.04 38.5395C1776.31 40.0509 1778.57 41.5622 1780.46 43.0736C1782.73 45.7184 1784.62 47.6076 1786.13 49.119Z" fill="#006E61" fill-opacity="0.14"/>
<path d="M1774.79 62.3434C1769.5 68.0109 1763.46 72.9228 1757.41 77.8347C1752.5 81.6131 1747.21 85.3915 1741.54 88.4142C1727.56 92.9483 1715.1 94.4597 1704.14 94.4597C1687.51 94.4597 1673.16 90.3034 1661.06 84.6358C1656.91 82.7467 1652.75 80.4796 1648.6 77.8347C1641.42 73.3007 1634.62 68.3888 1628.57 63.4769C1627.06 62.3434 1625.93 61.2098 1624.41 60.4542C1622.53 58.9428 1621.01 57.8093 1619.12 56.2979C1610.43 49.8747 1602.88 44.5849 1595.7 42.6957C1565.47 35.139 1548.47 50.2525 1542.8 57.0536L1542.42 56.6758C1540.53 54.4087 1538.64 52.5196 1537.13 50.2525C1536.76 49.8747 1536.38 49.119 1536 48.7412C1537.51 46.852 1539.78 44.9628 1542.05 43.0736C1546.58 39.2952 1552.62 35.5168 1560.56 32.8719C1570.38 29.4714 1583.23 28.3379 1598.72 32.1162C1608.92 34.7611 1618.37 41.5622 1629.33 49.8747C1630.08 50.6304 1630.84 51.0082 1631.59 51.7639C1633.86 53.6531 1636.13 55.1644 1638.39 57.0536C1645.57 62.3433 1653.13 67.6331 1661.44 72.1672C1665.22 74.4342 1669.38 76.3234 1673.91 77.8347C1690.54 83.8802 1710.56 86.1472 1736.25 78.5904C1747.21 75.5677 1760.44 69.9001 1774.79 62.3434Z" fill="#006E61" fill-opacity="0.14"/>
<path d="M1775.55 61.5876C1775.55 61.9655 1775.17 61.9654 1775.17 62.3433C1769.88 68.0109 1763.84 72.9228 1757.79 77.8347C1752.5 78.5903 1747.21 78.9682 1742.68 78.9682C1740.41 78.9682 1738.14 78.9682 1735.88 78.5904C1719.63 77.4568 1706.03 71.4114 1693.94 63.4768C1690.54 61.2098 1687.51 59.3206 1684.49 57.0535C1678.45 52.5195 1672.4 47.6076 1666.73 42.6957C1664.84 41.1843 1662.95 39.6729 1661.44 38.1616C1664.47 35.8945 1667.11 33.2497 1670.13 30.9827C1671.27 32.1162 1672.78 33.2497 1673.91 34.3832C1680.33 40.0508 1686.76 45.3405 1693.56 50.2524C1696.58 52.5195 1699.98 54.7865 1703 56.6757C1721.52 68.0109 1743.43 73.3006 1775.55 61.5876Z" fill="#006E61" fill-opacity="0.14"/>
<path d="M1786.89 48.3634C1786.89 48.7412 1786.51 49.1191 1786.13 49.1191C1785.75 49.4969 1785.37 49.8747 1785 50.2526C1783.11 52.5196 1781.22 54.7866 1779.33 57.0537C1776.68 52.5196 1770.64 42.6958 1761.19 33.2498C1749.1 20.7812 1731.34 9.06813 1710.18 11.713C1694.69 13.6022 1681.85 21.5368 1669.38 30.9828C1666.35 33.2498 1663.71 35.5169 1660.69 38.1617C1658.8 39.6731 1656.91 41.1845 1655.4 42.6958C1649.73 47.6077 1644.06 52.5196 1637.64 57.0537C1634.62 59.3207 1631.59 61.5878 1628.19 63.477C1616.1 71.4116 1602.5 77.0792 1586.25 78.5905C1583.99 78.5905 1582.1 78.9683 1579.45 78.9683C1574.92 78.9683 1570.01 78.5905 1564.72 77.8348C1558.29 72.9229 1552.62 67.6332 1546.96 61.9656C1578.7 72.9229 1600.23 68.011 1619.12 56.6758C1622.53 54.7866 1625.55 52.5196 1628.57 50.2526C1635.37 45.3407 1641.42 40.0509 1648.22 34.3833C1649.35 33.2498 1650.86 32.1163 1652 30.9828C1653.13 29.8493 1654.26 29.0936 1655.78 27.9601C1657.29 26.8266 1659.18 25.3152 1660.69 23.8039C1662.58 22.2925 1664.47 20.7812 1666.35 19.6476C1666.73 19.2698 1666.73 19.2698 1667.11 18.8919C1678.82 10.2017 1691.29 3.40055 1706.41 0.755681C1707.16 0.755681 1707.92 0.377848 1708.67 0.377848C1711.7 8.64242e-06 1714.34 0 1717.36 0C1729.45 0 1741.54 4.15622 1752.88 11.713C1756.66 13.98 1760.06 17.0028 1763.84 20.0255C1765.73 21.5368 1767.62 23.426 1769.5 25.6931C1773.66 30.2271 1777.44 34.7612 1780.46 38.5396C1783.11 42.318 1785.37 45.7185 1786.89 48.3634Z" fill="#006E61" fill-opacity="0.14"/>
</svg>
